<svg xmlns="http://www.w3.org/2000/svg" viewBox="0 0 456.008 456.008" fill="#bd5d38">
  <path d="M107.28 194.424c-4.992 0-8.256 3.264-8.256 8.16v50.592c0 5.28 3.36 8.16 8.256 8.16 4.896 0 8.256-3.264 8.256-8.16v-50.592c0-4.896-3.36-8.16-8.256-8.16zm232.416 0c-4.608 0-7.488 2.976-7.488 7.488v3.264l-29.76 38.016v-41.28c0-4.512-2.88-7.488-7.488-7.488s-7.488 2.976-7.488 7.488v58.464c0 4.512 2.88 7.488 7.488 7.488 4.608 0 7.488-2.976 7.488-7.488v-3.264l29.76-38.016v41.28c0 4.512 2.88 7.488 7.488 7.488s7.488-2.976 7.488-7.488v-58.464c0-4.512-2.88-7.488-7.488-7.488zm-83.328 0c-4.608 0-7.488 2.976-7.488 7.488v50.976c0 4.512 2.88 7.488 7.488 7.488h26.304c4.32 0 6.912-2.784 6.912-6.72s-2.592-6.72-6.912-6.72h-18.816v-15.264h13.824c4.32 0 6.912-2.688 6.912-6.624s-2.592-6.624-6.912-6.624h-13.824v-15.552h18.816c4.32 0 6.912-2.784 6.912-6.72s-2.592-6.72-6.912-6.72h-26.304zm-80.64 0c-4.608 0-7.488 2.976-7.488 7.488v50.976c0 4.512 2.88 7.488 7.488 7.488h20.64c10.944 0 19.008-2.112 24.672-6.432 5.76-4.32 8.64-10.944 8.64-19.872s-2.88-15.552-8.64-19.872c-5.664-4.32-13.728-6.432-24.672-6.432h-20.64zm7.488 13.44h13.152c6.144 0 10.656 1.248 13.536 3.744s4.32 6.24 4.32 11.232-1.44 8.736-4.32 11.232-7.392 3.744-13.536 3.744h-13.152v-29.952zm-45.216-13.44c-4.992 0-8.256 3.264-8.256 8.16v50.592c0 5.28 3.36 8.16 8.256 8.16s8.256-3.264 8.256-8.16v-50.592c0-4.896-3.36-8.16-8.256-8.16z"/>
  <circle cx="66.232" cy="253.464" r="7.92"/>
</svg>
